<?xml version="1.0" encoding="utf-8"?>
<!-- Generator: Adobe Illustrator 24.1.2, SVG Export Plug-In . SVG Version: 6.00 Build 0)  -->
<svg version="1.1" id="Layer_1" xmlns="http://www.w3.org/2000/svg" xmlns:xlink="http://www.w3.org/1999/xlink" x="0px" y="0px"
	 viewBox="0 0 36.8 36.9" style="enable-background:new 0 0 36.8 36.9;" xml:space="preserve">
<g transform="translate(0.000000,60.000000) scale(0.100000,-0.100000)">
	<path d="M95,594.3c-75-16-95-55-95-184c0-102,16-149,56-168c14-6,75-11,139-11c106,0,116,2,142,24c27,24,28,27,31,148
		c3,113,2,126-18,150c-11,15-38,32-58,38C256,601.3,135,603.3,95,594.3z M320,541.3c17-17,20-33,20-124c0-89-3-107-21-130
		c-20-25-24-26-129-26c-152,0-155,3-155,148c0,151,1,152,152,152C287,561.3,302,559.3,320,541.3z"/>
	<path d="M270,511.3c0-15,5-20,18-18c9,2,17,10,17,18c0,8-8,16-17,18C275,531.3,270,526.3,270,511.3z"/>
	<path d="M164,504.3c-67-13-93-114-41-159c90-77,214,46,131,130c-15,14-30,26-35,26c-4,0-13,2-21,4C191,507.3,175,506.3,164,504.3z
		 M236,446.3c32-49-11-106-69-92c-31,8-50,49-37,81C146,478.3,210,485.3,236,446.3z"/>
</g>
</svg>
