<?xml version="1.0" encoding="utf-8"?>
<!-- Generator: Adobe Illustrator 24.1.2, SVG Export Plug-In . SVG Version: 6.00 Build 0)  -->
<svg version="1.1" id="Layer_1" xmlns="http://www.w3.org/2000/svg" xmlns:xlink="http://www.w3.org/1999/xlink" x="0px" y="0px"
	 viewBox="0 0 486 499.7" style="enable-background:new 0 0 486 499.7;" xml:space="preserve">
<style type="text/css">
	.st0{stroke:#000000;stroke-width:20;stroke-miterlimit:10;}
	.st1{stroke:#000000;stroke-width:10;stroke-miterlimit:10;}
</style>
<g transform="translate(0.000000,1080.000000) scale(0.100000,-0.100000)">
	<path class="st0" d="M2255,10796.9c-755-78-1388-461-1805-1094c-138-210-266-518-324-781c-76-344-73-737,10-1078
		c61-250,187-546,306-719l30-43l-236-577c-147-360-236-590-236-610c0-47,46-92,93-92c25,0,180,74,583,277l548,276l30-18
		c245-143,549-251,851-302c155-25,551-26,715,0c787,124,1447,606,1795,1312c121,245,206,532,234,797c14,122,14,395,1,513
		c-121,1091-941,1949-2025,2121C2729,10793.9,2346,10805.9,2255,10796.9z M2717,10586.9c660-77,1264-459,1611-1019
		c205-332,314-692,329-1095c13-360-61-704-222-1029c-338-679-965-1123-1718-1215c-142-18-436-14-577,8c-282,44-556,143-796,287
		c-46,28-94,49-110,49c-17,0-210-92-477-226c-247-124-450-224-453-222c-2,2,82,213,187,469c118,286,192,477,192,499
		c0,27-15,58-62,130c-231,355-345,746-345,1185c0,359,68,653,227,975C909,10205.9,1805,10692.9,2717,10586.9z"/>
	<path class="st1" d="M1635,9654.9c-94-28-170-67-192-98c-64-91-161-325-189-457c-19-90-18-229,2-325c89-435,593-1081,1112-1426
		c274-182,492-248,727-217c104,14,297,75,405,129c80,40,96,58,150,182c35,79,35,213,1,285c-55,112-292,310-475,396
		c-61,29-74,31-144,27c-121-7-261-83-292-157c-7-18-24-34-42-40c-27-10-36-6-106,41c-43,29-136,111-213,187
		c-141,142-240,265-302,377c-34,62-36,68-22,94c8,16,31,34,54,44c30,12,52,33,90,87c60,85,85,154,86,235c0,57-6,73-67,197
		c-105,210-235,370-345,424C1804,9672.9,1716,9678.9,1635,9654.9z M1796,9437.9c59-34,161-173,230-312l56-112l-25-54
		c-20-44-36-62-80-90c-76-49-127-126-142-218c-37-214,571-888,827-916c61-7,150,29,210,85c26,24,50,52,53,61c6,21,86,61,122,61
		c50,0,225-112,326-209c104-100,115-131,75-223c-20-47-27-53-94-85c-154-70-336-104-464-84c-401,62-1072,681-1341,1236
		c-122,251-129,428-26,673c57,134,81,168,129,185C1744,9468.9,1743,9468.9,1796,9437.9z"/>
</g>
</svg>
