<!-- youtube -->
<svg xmlns="http://www.w3.org/2000/svg">
<symbol id="youtube" viewBox="0 0 63.000000 63.000000">
<g transform="translate(0.000000,63.000000) scale(0.100000,-0.100000)"
 stroke="none">
<path d="M213 612 c-264 -94 -286 -456 -35 -579 48 -24 70 -28 137 -28 67 0
89 4 137 28 65 32 121 90 151 156 30 65 30 187 0 252 -67 148 -241 224 -390
171z m271 -188 c23 -22 23 -216 0 -238 -23 -23 -305 -23 -328 0 -23 22 -23
216 0 238 23 23 305 23 328 0z"/>
<path d="M270 304 l0 -76 61 34 c33 19 61 39 61 44 1 9 -99 73 -114 74 -5 0
-8 -34 -8 -76z"/>
</g>
</symbol>
</svg>