<!-- watsapp -->
<svg  id="watsapp" xmlns="http://www.w3.org/2000/svg" xmlns:xlink="http://www.w3.org/1999/xlink"  viewBox="0 0 60 60">

<path d="M0 60l4.24-15.41A29.627 29.627 0 01.25 29.73C.26 13.34 13.66 0 30.13 0c7.99 0 15.49 3.1 21.13 8.72C56.9 14.34 60 21.81 60 29.75c-.01 16.39-13.41 29.73-29.87 29.73h-.01c-5 0-9.91-1.25-14.28-3.62L0 60zm16.57-9.52l.91.54c3.81 2.25 8.18 3.44 12.64 3.45h.01c13.69 0 24.82-11.09 24.83-24.71 0-6.6-2.58-12.81-7.27-17.48C43 7.6 36.77 5.02 30.13 5.02 16.43 5.02 5.3 16.1 5.29 29.73c0 4.67 1.31 9.22 3.8 13.15l.59.93-2.51 9.12 9.4-2.45z"/><path class="st0" d="M21.94 16.51c-.55-1.33-1.13-1.35-1.66-1.38-.43-.02-.92-.02-1.41-.02-.49 0-1.29.2-1.97 1-.68.8-2.58 2.72-2.58 6.64 0 3.92 2.65 7.7 3.01 8.23.37.53 5.11 8.82 12.61 12.01 6.24 2.65 7.5 2.12 8.86 1.99s4.37-1.92 4.98-3.78c.62-1.86.62-3.45.43-3.78-.18-.33-.68-.53-1.41-.93-.74-.4-4.37-2.32-5.04-2.59-.68-.27-1.17-.4-1.66.4s-1.91 2.59-2.34 3.12c-.43.53-.86.6-1.6.2-.74-.4-3.12-1.24-5.94-3.95-2.19-2.11-3.68-4.71-4.11-5.51-.43-.8-.05-1.23.32-1.62.33-.36.74-.93 1.11-1.39.37-.46.49-.8.74-1.33s.12-1-.06-1.39c-.19-.41-1.63-4.35-2.28-5.92z"/>

</svg>
