<svg id="call" version="1.0" xmlns="http://www.w3.org/2000/svg"
  viewBox="0 0 60.000000 60.000000"
 preserveAspectRatio="xMidYMid meet">

<g transform="translate(0.000000,60.000000) scale(0.100000,-0.100000)"
 stroke="none">
<path d="M203 582 c-251 -90 -272 -432 -35 -549 81 -40 183 -40 264 0 107 53
163 144 163 267 0 85 -21 142 -74 203 -72 81 -213 117 -318 79z m229 -49 c92
-51 146 -155 135 -261 -15 -145 -149 -254 -295 -239 -145 15 -254 149 -239
295 11 102 92 201 191 232 57 17 150 5 208 -27z"/>
<path d="M195 486 c-42 -18 -83 -69 -91 -112 -3 -19 -4 -37 -1 -40 11 -11 27
8 27 32 0 34 58 94 99 103 40 8 54 31 19 31 -12 -1 -37 -7 -53 -14z"/>
<path d="M189 411 c-25 -25 -39 -48 -39 -64 0 -38 19 -43 26 -8 7 36 47 78 76
83 33 5 35 28 3 28 -18 0 -40 -13 -66 -39z"/>
<path d="M375 425 c-31 -30 -33 -75 -5 -100 27 -24 26 -29 -16 -75 -41 -45
-58 -49 -90 -19 -27 25 -63 20 -95 -12 -45 -45 10 -119 90 -119 80 0 207 111
232 203 12 45 1 88 -33 124 -28 30 -53 29 -83 -2z m74 -21 c50 -63 7 -174 -94
-242 -74 -50 -116 -54 -165 -14 -29 24 -20 57 20 70 23 9 31 7 46 -9 29 -33
67 -24 113 26 46 50 51 73 21 100 -11 10 -20 26 -20 37 0 19 33 58 49 58 5 0
19 -12 30 -26z"/>
<path d="M229 371 c-28 -28 -40 -71 -20 -71 6 0 16 12 23 27 7 15 26 34 41 41
15 7 27 17 27 23 0 20 -43 8 -71 -20z"/>
</g>
</svg>
